# xmcd
#
# Track frame offsets:
#	150
#	12805
#	24825
#	38179
#	52177
#	63710
#	75268
#	88304
#	107477
#	124591
#	140322
#	155789
#	173190
#	186197
#	202468
#
# Disc length: 2915 seconds
#
# Revision: 1
# Processed by: cddbd v1.5.1PL2 Copyright (c) Steve Scherf et al.
# Submitted via: audiograbber 1.83.01
#
DISCID=cd0b610f
DTITLE=Chartbuster - cb60076
DYEAR=1900
DGENRE=
TTITLE0=Lynn, Loretta and Twitty, Conway - After The Fire Is Gone
TTITLE1=Nightingale, Maxine - Lead Me On
TTITLE2=Lynn, Loretta and Twitty, Conway - As Soon As I Hang Up The Phone
TTITLE3=Lynn, Loretta and Twitty, Conway - Feelings
TTITLE4=Wynette, Tammy and Jones, George - We Loved It Away
TTITLE5=Wynette, Tammy and Jones, George - Near You
TTITLE6=Wynette, Tammy and Jones, George - Two Story House
TTITLE7=Carey, Mariah and Boyz II Men - One Sweet Day
TTITLE8=West, Shelly and Frizzell, David - I Just Came Here To Dance
TTITLE9=Mandrell, Barbara and Greenwood, Lee - To Me
TTITLE10=Mandrell, Barbara and Greenwood, Lee - It Should Have Been Love By Now
TTITLE11=Houston, Whitney and Jackson, F - Nobody Loves Me Like You Do
TTITLE12=McEntire, Reba and Gill, Vince - Oklahoma Swing
TTITLE13=Rogers, Kenny and Parton, Dolly - Love Is Strange
TTITLE14=Tucker, Tanya and Brown, T Graham - Don't Go Out
EXTD=
EXTT0=
EXTT1=
EXTT2=
EXTT3=
EXTT4=
EXTT5=
EXTT6=
EXTT7=
EXTT8=
EXTT9=
EXTT10=
EXTT11=
EXTT12=
EXTT13=
EXTT14=
PLAYORDER=
